<svg xmlns="http://www.w3.org/2000/svg" width="980" height="420" viewBox="0 0 980 420">
<style>text{font-family:Arial,sans-serif;fill:#1f2937}.axis{stroke:#9ca3af}.grid{stroke:#e5e7eb}.line{fill:none;stroke:#2563eb;stroke-width:2.5}.draw{fill:none;stroke:#dc2626;stroke-width:2.5}.barpos{fill:#16a34a}.barneg{fill:#dc2626}.muted{fill:#6b7280;font-size:12px}.title{font-size:20px;font-weight:700}.label{font-size:12px}</style>
<rect width="980" height="420" fill="#fff"/>
<text class="title" x="24" y="34">Optimized Net P&amp;L by Symbol</text>
<line class="grid" x1="80" x2="956" y1="350.0" y2="350.0"/>
<text class="muted" x="12" y="354.0">-800</text>
<line class="grid" x1="80" x2="956" y1="277.5" y2="277.5"/>
<text class="muted" x="12" y="281.5">1,267</text>
<line class="grid" x1="80" x2="956" y1="205.0" y2="205.0"/>
<text class="muted" x="12" y="209.0">3,335</text>
<line class="grid" x1="80" x2="956" y1="132.5" y2="132.5"/>
<text class="muted" x="12" y="136.5">5,403</text>
<line class="grid" x1="80" x2="956" y1="60.0" y2="60.0"/>
<text class="muted" x="12" y="64.0">7,470</text>
<line class="axis" x1="80" x2="956" y1="321.9" y2="321.9"/>
<rect class="barpos" x="113.3" y="88.1" width="108.6" height="233.9" rx="3"/>
<text class="label" text-anchor="middle" x="167.6" y="82.1">6,670</text>
<text class="muted" text-anchor="middle" x="167.6" y="392">BTCUSD</text>
<rect class="barpos" x="288.5" y="311.6" width="108.6" height="10.3" rx="3"/>
<text class="label" text-anchor="middle" x="342.8" y="305.6">294</text>
<text class="muted" text-anchor="middle" x="342.8" y="392">EURJPY</text>
<rect class="barpos" x="463.7" y="315.0" width="108.6" height="6.9" rx="3"/>
<text class="label" text-anchor="middle" x="518.0" y="309.0">197</text>
<text class="muted" text-anchor="middle" x="518.0" y="392">EURUSD</text>
<rect class="barpos" x="638.9" y="299.7" width="108.6" height="22.2" rx="3"/>
<text class="label" text-anchor="middle" x="693.2" y="293.7">634</text>
<text class="muted" text-anchor="middle" x="693.2" y="392">GBPJPY</text>
<rect class="barpos" x="814.1" y="284.7" width="108.6" height="37.2" rx="3"/>
<text class="label" text-anchor="middle" x="868.4" y="278.7">1,062</text>
<text class="muted" text-anchor="middle" x="868.4" y="392">GOLD</text>
</svg>